<?xml version="1.0" encoding="utf-8"?>
<!-- Generator: Adobe Illustrator 15.0.2, SVG Export Plug-In . SVG Version: 6.00 Build 0)  -->
<!DOCTYPE svg PUBLIC "-//W3C//DTD SVG 1.1//EN" "http://www.w3.org/Graphics/SVG/1.1/DTD/svg11.dtd">
<svg version="1.1" id="Layer_1" xmlns="http://www.w3.org/2000/svg" xmlns:xlink="http://www.w3.org/1999/xlink" x="0px" y="0px"
	 width="32px" height="32px" viewBox="304 304 32 32" enable-background="new 304 304 32 32" xml:space="preserve">
<path fill="#FFFFFF" d="M334.8,316.1c-1.1,1.1-12.7,12.2-12.7,12.2c-0.6,0.6-1.4,0.9-2.1,0.9c-0.8,0-1.5-0.3-2.1-0.9
	c0,0-11.6-11-12.7-12.2c-1.1-1.1-1.2-3.2,0-4.4c1.2-1.2,2.8-1.3,4.3,0l10.6,10.1l10.6-10.1c1.4-1.3,3.1-1.2,4.3,0
	C336,312.9,335.9,315,334.8,316.1L334.8,316.1z"/>
</svg>
