<?xml version="1.0" encoding="utf-8"?>
<!-- Generator: Adobe Illustrator 16.0.4, SVG Export Plug-In . SVG Version: 6.00 Build 0)  -->
<!DOCTYPE svg PUBLIC "-//W3C//DTD SVG 1.1//EN" "http://www.w3.org/Graphics/SVG/1.1/DTD/svg11.dtd">
<svg version="1.1" id="Layer_1" xmlns="http://www.w3.org/2000/svg" xmlns:xlink="http://www.w3.org/1999/xlink" x="0px" y="0px"
	 width="60px" height="21px" viewBox="0 0 60 21" enable-background="new 0 0 60 21" xml:space="preserve">
<path fill="#DFEDEF" d="M60,20c0,0.552-0.448,1-1,1H1c-0.552,0-1-0.448-1-1V1c0-0.552,0.448-1,1-1h58c0.552,0,1,0.448,1,1V20z"/>
<g>
	<path fill="#FFFFFF" d="M18.439,15.998c-2.786,2.789-7.296,2.789-10.08,0.005c-2.784-2.783-2.784-7.299,0-10.083
		c2.782-2.779,7.296-2.784,10.08,0C21.223,8.704,21.219,13.22,18.439,15.998z"/>
</g>
<g>
	<path fill="#0071BC" d="M22.465,5.568c-0.353,0.353-1.048,0.23-1.552-0.273L19.088,3.47c-0.504-0.504-0.626-1.199-0.274-1.552
		l0.32-0.32c0.353-0.353,1.047-0.23,1.552,0.274l1.825,1.825c0.504,0.504,0.626,1.199,0.273,1.552L22.465,5.568z"/>
</g>
<g>
	
		<rect x="18.767" y="4.079" transform="matrix(0.7072 0.707 -0.707 0.7072 9.0392 -12.6476)" fill="#0071BC" width="2.046" height="1.022"/>
</g>
<g>
	<path fill="#29ABE2" d="M13.399,5.197c-0.356,0-0.646-0.289-0.646-0.646V2.615c0-0.356,0.289-0.646,0.646-0.646
		s0.646,0.289,0.646,0.646v1.936C14.044,4.908,13.755,5.197,13.399,5.197z"/>
</g>
<g>
	<path fill="#29ABE2" d="M13.399,19.998c-0.356,0-0.646-0.289-0.646-0.646v-1.937c0-0.356,0.289-0.646,0.646-0.646
		s0.646,0.289,0.646,0.646v1.937C14.044,19.709,13.755,19.998,13.399,19.998z"/>
</g>
<g>
	<path fill="#29ABE2" d="M6.945,11.607H5.009c-0.356,0-0.646-0.289-0.646-0.646s0.289-0.646,0.646-0.646h1.936
		c0.356,0,0.646,0.289,0.646,0.646S7.301,11.607,6.945,11.607z"/>
</g>
<g>
	<path fill="#29ABE2" d="M21.789,11.607h-1.936c-0.356,0-0.646-0.289-0.646-0.646s0.289-0.646,0.646-0.646h1.936
		c0.356,0,0.646,0.289,0.646,0.646S22.146,11.607,21.789,11.607z"/>
</g>
<g>
	<path fill="#29ABE2" d="M8.835,7.043c-0.165,0-0.33-0.063-0.456-0.189L7.01,5.485c-0.252-0.252-0.252-0.661,0-0.913
		c0.252-0.252,0.661-0.252,0.913,0l1.369,1.369c0.252,0.252,0.252,0.661,0,0.913C9.166,6.98,9,7.043,8.835,7.043z"/>
</g>
<g>
	<path fill="#29ABE2" d="M19.332,17.539c-0.165,0-0.33-0.062-0.456-0.188l-1.369-1.369c-0.252-0.252-0.252-0.66,0-0.913
		c0.252-0.252,0.661-0.252,0.913,0l1.369,1.369c0.252,0.252,0.252,0.661,0,0.913C19.662,17.477,19.497,17.539,19.332,17.539z"/>
</g>
<g>
	<path fill="#29ABE2" d="M7.466,17.539c-0.166,0-0.331-0.062-0.457-0.188c-0.252-0.252-0.252-0.661,0-0.913l1.369-1.369
		c0.252-0.252,0.66-0.252,0.913,0c0.252,0.253,0.252,0.661,0,0.913l-1.369,1.369C7.796,17.477,7.631,17.539,7.466,17.539z"/>
</g>
<g>
	<path fill="#29ABE2" d="M17.963,7.043c-0.166,0-0.331-0.063-0.457-0.189c-0.252-0.252-0.252-0.66,0-0.913l1.369-1.369
		c0.252-0.252,0.66-0.252,0.913,0c0.252,0.252,0.252,0.66,0,0.913l-1.369,1.369C18.293,6.98,18.128,7.043,17.963,7.043z"/>
</g>
<g>
	<path fill="#0071BC" d="M13.719,9.057c-1.522-0.308-4.74,0.07-4.74,0.07s2.006,2.541,3.291,3.404
		c0.031,0.021,0.062,0.042,0.093,0.062c0.103,0.064,0.202,0.12,0.292,0.158c0.989,0.409,2.122-0.059,2.532-1.047
		c0.411-0.986-0.057-2.12-1.045-2.529c-0.092-0.039-0.204-0.07-0.323-0.098C13.785,9.069,13.752,9.062,13.719,9.057z"/>
</g>
<g>
	<circle fill="#FFFFFF" cx="13.399" cy="10.962" r="0.968"/>
</g>
<g>
	<path fill="#0071BC" d="M13.399,3.862c3.915,0,7.1,3.185,7.1,7.1c0,3.914-3.185,7.1-7.1,7.1s-7.1-3.186-7.1-7.1
		C6.299,7.047,9.484,3.862,13.399,3.862 M13.399,1.926c-4.99,0-9.036,4.045-9.036,9.036c0,4.989,4.046,9.036,9.036,9.036
		s9.036-4.047,9.036-9.036C22.435,5.972,18.389,1.926,13.399,1.926L13.399,1.926z"/>
</g>
<g>
	<path fill="#29ABE2" d="M13.399,3.217c-4.277,0-7.745,3.468-7.745,7.745c0,4.275,3.468,7.745,7.745,7.745
		c4.276,0,7.745-3.47,7.745-7.745C21.144,6.685,17.675,3.217,13.399,3.217z M13.399,18.062c-3.915,0-7.1-3.186-7.1-7.1
		c0-3.915,3.185-7.1,7.1-7.1s7.1,3.185,7.1,7.1C20.499,14.876,17.313,18.062,13.399,18.062z"/>
</g>
<g>
	<path fill="#575657" d="M31.858,7.471h-2.285v6.343h-0.933V7.471h-2.28V6.704h5.498V7.471z"/>
	<path fill="#575657" d="M32.776,7.129c0-0.146,0.045-0.27,0.134-0.371s0.222-0.151,0.398-0.151s0.309,0.05,0.4,0.151
		s0.137,0.225,0.137,0.371S33.8,7.397,33.709,7.495s-0.225,0.146-0.4,0.146S33,7.593,32.911,7.495S32.776,7.275,32.776,7.129z
		 M33.753,13.813H32.85V8.53h0.903V13.813z"/>
	<path fill="#575657" d="M36.048,8.53l0.024,0.586c0.387-0.456,0.91-0.684,1.567-0.684c0.739,0,1.242,0.283,1.509,0.85
		c0.176-0.254,0.404-0.459,0.686-0.615s0.614-0.234,0.999-0.234c1.159,0,1.748,0.614,1.768,1.841v3.54h-0.903v-3.486
		c0-0.377-0.086-0.66-0.259-0.847s-0.462-0.281-0.869-0.281c-0.335,0-0.614,0.1-0.835,0.3s-0.35,0.47-0.386,0.808v3.506H38.44
		v-3.462c0-0.768-0.376-1.152-1.128-1.152c-0.592,0-0.998,0.252-1.216,0.757v3.857h-0.903V8.53H36.048z"/>
	<path fill="#575657" d="M46.155,13.911c-0.716,0-1.299-0.235-1.748-0.706c-0.449-0.47-0.674-1.1-0.674-1.887v-0.166
		c0-0.524,0.1-0.992,0.3-1.404s0.48-0.734,0.84-0.967s0.75-0.349,1.169-0.349c0.687,0,1.221,0.226,1.602,0.679
		s0.571,1.1,0.571,1.943v0.376h-3.579c0.013,0.521,0.165,0.941,0.457,1.263c0.292,0.32,0.662,0.48,1.111,0.48
		c0.319,0,0.589-0.064,0.811-0.195s0.415-0.303,0.581-0.518l0.552,0.43C47.705,13.57,47.041,13.911,46.155,13.911z M46.043,9.175
		c-0.365,0-0.67,0.133-0.918,0.398s-0.4,0.637-0.459,1.116h2.646V10.62c-0.026-0.459-0.15-0.814-0.371-1.067
		S46.42,9.175,46.043,9.175z"/>
	<path fill="#575657" d="M49.041,11.128c0-0.811,0.192-1.462,0.576-1.956s0.887-0.74,1.509-0.74c0.618,0,1.108,0.211,1.47,0.635
		V6.313h0.903v7.5h-0.83l-0.044-0.566c-0.361,0.442-0.864,0.664-1.509,0.664c-0.612,0-1.111-0.251-1.496-0.752
		c-0.387-0.501-0.579-1.155-0.579-1.963V11.128z M49.944,11.23c0,0.6,0.124,1.068,0.371,1.406s0.589,0.508,1.025,0.508
		c0.573,0,0.991-0.258,1.255-0.771V9.946c-0.271-0.498-0.686-0.747-1.245-0.747c-0.442,0-0.788,0.171-1.035,0.513
		S49.944,10.56,49.944,11.23z"/>
</g>
</svg>
