<?xml version="1.0" encoding="utf-8"?>
<!-- Generator: Adobe Illustrator 15.0.2, SVG Export Plug-In . SVG Version: 6.00 Build 0)  -->
<!DOCTYPE svg PUBLIC "-//W3C//DTD SVG 1.1//EN" "http://www.w3.org/Graphics/SVG/1.1/DTD/svg11.dtd">
<svg version="1.1" id="Layer_1" xmlns="http://www.w3.org/2000/svg" xmlns:xlink="http://www.w3.org/1999/xlink" x="0px" y="0px"
	 width="72px" height="46px" viewBox="0 0 72 46" enable-background="new 0 0 72 46" xml:space="preserve">
<g>
	<path fill="#FFFFFF" d="M20.4,8.4c-0.3-0.8-0.4-1.5-0.5-1.8c-0.3,1.2-0.6,2.5-1.2,3.9L16.7,16H23l-2-5.8
		C20.8,9.8,20.6,9.2,20.4,8.4z"/>
	<path fill="#FFFFFF" d="M36,0H4C1.8,0,0,1.8,0,4v22c0,2.2,1.8,4,4,4h13l10,10V30h9c2.2,0,4-1.8,4-4V4C40,1.8,38.2,0,36,0z M26,25
		l-2.1-6h-8.2l-2.1,6H9.9l8-21h3.8l8,21H26z"/>
</g>
<g>
	<path fill="#FFFFFF" d="M54.8,20.6c2-2.2,3.3-4.6,4.1-5.6h-8.2C51.4,16,52.7,18.5,54.8,20.6z"/>
	<path fill="#FFFFFF" d="M68,5H42v21c0,3.4-2.5,6-6,6h-4.9c0.4,1.7,2,3,3.9,3h4v10l10-10h19c2.2,0,4-1.8,4-4V9C72,6.8,70.2,5,68,5z
		 M66,15h-3.8c-0.5,1-2.1,4.3-5.3,7.6c2.2,1.9,5,3.6,8.5,4.7l-0.9,2.9c-4-1.3-7.3-3.4-9.8-5.6c-2.5,2.2-5.7,4.3-9.8,5.6L44,27.4
		c3.5-1.2,6.3-2.9,8.5-4.8c-3.1-3.3-4.7-6.6-5.3-7.6H44v-3h9V8h3v4h10V15z"/>
</g>
</svg>
