<svg xmlns="http://www.w3.org/2000/svg" width="60" height="21" viewBox="0 0 60 21"><path fill="#DFEDEF" d="M60 20a1 1 0 0 1-1 1H1a1 1 0 0 1-1-1V1a1 1 0 0 1 1-1h58a1 1 0 0 1 1 1v19z"/><path fill="#FFF" d="M18.439 15.998a7.122 7.122 0 0 1-10.08.005 7.13 7.13 0 0 1 0-10.083 7.131 7.131 0 0 1 10.08 0 7.128 7.128 0 0 1 0 10.078z"/><path fill="#0071BC" d="M22.465 5.568c-.353.353-1.048.23-1.552-.273L19.088 3.47c-.504-.504-.626-1.199-.274-1.552l.32-.32c.353-.353 1.047-.23 1.552.274l1.825 1.825c.504.504.626 1.199.273 1.552l-.319.319z"/><path fill="#0071BC" d="M19.427 3.505l1.447 1.447-.722.723-1.447-1.447z"/><path fill="#29ABE2" d="M13.399 5.197a.646.646 0 0 1-.646-.646V2.615a.646.646 0 0 1 1.292 0v1.936a.647.647 0 0 1-.646.646zM13.399 19.998a.646.646 0 0 1-.646-.646v-1.937a.646.646 0 0 1 1.292 0v1.937a.647.647 0 0 1-.646.646zM6.945 11.607H5.009a.646.646 0 0 1 0-1.292h1.936a.646.646 0 0 1 0 1.292zM21.789 11.607h-1.936a.646.646 0 0 1 0-1.292h1.936a.646.646 0 0 1 0 1.292zM8.835 7.043a.643.643 0 0 1-.456-.189L7.01 5.485a.646.646 0 0 1 .913-.913l1.369 1.369a.646.646 0 0 1-.457 1.102zM19.332 17.539a.642.642 0 0 1-.456-.188l-1.369-1.369a.646.646 0 0 1 .913-.913l1.369 1.369a.646.646 0 0 1-.457 1.101zM7.466 17.539a.646.646 0 0 1-.457-1.101l1.369-1.369a.646.646 0 0 1 .913.913l-1.369 1.369a.642.642 0 0 1-.456.188zM17.963 7.043a.646.646 0 0 1-.457-1.102l1.369-1.369a.646.646 0 0 1 .913.913l-1.369 1.369a.643.643 0 0 1-.456.189z"/><path fill="#0071BC" d="M13.719 9.057c-1.522-.308-4.74.07-4.74.07s2.006 2.541 3.291 3.404l.093.062a2.2 2.2 0 0 0 .292.158 1.938 1.938 0 0 0 2.532-1.047 1.933 1.933 0 0 0-1.045-2.529 2.066 2.066 0 0 0-.423-.118z"/><circle fill="#FFF" cx="13.399" cy="10.962" r=".968"/><path fill="#0071BC" d="M13.399 3.862c3.915 0 7.1 3.185 7.1 7.1 0 3.914-3.185 7.1-7.1 7.1s-7.1-3.186-7.1-7.1c0-3.915 3.185-7.1 7.1-7.1m0-1.936a9.036 9.036 0 1 0 0 18.072 9.036 9.036 0 0 0 0-18.072z"/><path fill="#29ABE2" d="M13.399 3.217a7.746 7.746 0 1 0 .001 15.491A7.746 7.746 0 0 0 13.4 3.217zm0 14.845c-3.915 0-7.1-3.186-7.1-7.1 0-3.915 3.185-7.1 7.1-7.1s7.1 3.185 7.1 7.1c0 3.914-3.186 7.1-7.1 7.1z"/><g fill="#575657"><path d="M31.858 7.471h-2.285v6.343h-.933V7.471h-2.28v-.767h5.498v.767zM32.776 7.129c0-.146.045-.27.134-.371s.222-.151.398-.151.309.05.4.151.137.225.137.371-.045.268-.136.366-.225.146-.4.146-.309-.048-.398-.146-.135-.22-.135-.366zm.977 6.684h-.903V8.53h.903v5.283zM36.048 8.53l.024.586c.387-.456.91-.684 1.567-.684.739 0 1.242.283 1.509.85.176-.254.404-.459.686-.615s.614-.234.999-.234c1.159 0 1.748.614 1.768 1.841v3.54h-.903v-3.486c0-.377-.086-.66-.259-.847s-.462-.281-.869-.281c-.335 0-.614.1-.835.3s-.35.47-.386.808v3.506h-.909v-3.462c0-.768-.376-1.152-1.128-1.152-.592 0-.998.252-1.216.757v3.857h-.903V8.53h.855zM46.155 13.911c-.716 0-1.299-.235-1.748-.706-.449-.47-.674-1.1-.674-1.887v-.166c0-.524.1-.992.3-1.404s.48-.734.84-.967.75-.349 1.169-.349c.687 0 1.221.226 1.602.679s.571 1.1.571 1.943v.376h-3.579c.013.521.165.941.457 1.263.292.32.662.48 1.111.48.319 0 .589-.064.811-.195s.415-.303.581-.518l.552.43c-.443.68-1.107 1.021-1.993 1.021zm-.112-4.736c-.365 0-.67.133-.918.398s-.4.637-.459 1.116h2.646v-.069c-.026-.459-.15-.814-.371-1.067s-.521-.378-.898-.378zM49.041 11.128c0-.811.192-1.462.576-1.956s.887-.74 1.509-.74c.618 0 1.108.211 1.47.635V6.313h.903v7.5h-.83l-.044-.566c-.361.442-.864.664-1.509.664-.612 0-1.111-.251-1.496-.752-.387-.501-.579-1.155-.579-1.963v-.068zm.903.102c0 .6.124 1.068.371 1.406s.589.508 1.025.508c.573 0 .991-.258 1.255-.771V9.946c-.271-.498-.686-.747-1.245-.747-.442 0-.788.171-1.035.513s-.371.848-.371 1.518z"/></g></svg>