<svg xmlns="http://www.w3.org/2000/svg" width="72" height="46" viewBox="0 0 72 46"><g fill="#FFF"><path d="M20.4 8.4c-.3-.8-.4-1.5-.5-1.8-.3 1.2-.6 2.5-1.2 3.9l-2 5.5H23l-2-5.8c-.2-.4-.4-1-.6-1.8z"/><path d="M36 0H4C1.8 0 0 1.8 0 4v22c0 2.2 1.8 4 4 4h13l10 10V30h9c2.2 0 4-1.8 4-4V4c0-2.2-1.8-4-4-4zM26 25l-2.1-6h-8.2l-2.1 6H9.9l8-21h3.8l8 21H26z"/></g><g fill="#FFF"><path d="M54.8 20.6c2-2.2 3.3-4.6 4.1-5.6h-8.2c.7 1 2 3.5 4.1 5.6z"/><path d="M68 5H42v21c0 3.4-2.5 6-6 6h-4.9c.4 1.7 2 3 3.9 3h4v10l10-10h19c2.2 0 4-1.8 4-4V9c0-2.2-1.8-4-4-4zm-2 10h-3.8c-.5 1-2.1 4.3-5.3 7.6 2.2 1.9 5 3.6 8.5 4.7l-.9 2.9c-4-1.3-7.3-3.4-9.8-5.6-2.5 2.2-5.7 4.3-9.8 5.6l-.9-2.8c3.5-1.2 6.3-2.9 8.5-4.8-3.1-3.3-4.7-6.6-5.3-7.6H44v-3h9V8h3v4h10v3z"/></g></svg>