<?xml version="1.0" encoding="UTF-8"?>
<svg width="500px" height="500px" viewBox="0 0 500 500" version="1.1" xmlns="http://www.w3.org/2000/svg" xmlns:xlink="http://www.w3.org/1999/xlink">
    <!-- Generator: Sketch 46.1 (44463) - http://www.bohemiancoding.com/sketch -->
    <title>Group</title>
    <desc>Created with Sketch.</desc>
    <defs>
        <radialGradient cx="50%" cy="0%" fx="50%" fy="0%" r="158.251659%" id="radialGradient-1">
            <stop stop-color="#00CCFF" offset="0%"></stop>
            <stop stop-color="#0E5374" offset="100%"></stop>
        </radialGradient>
        <rect id="path-2" x="0" y="0" width="500" height="500"></rect>
        <polygon id="path-4" points="0.449642346 0.385714286 448.807296 0.385714286 448.807296 44.6142857 0.449642346 44.6142857"></polygon>
        <polygon id="path-6" points="0.449642346 0.385714286 448.807296 0.385714286 448.807296 44.6142857 0.449642346 44.6142857"></polygon>
    </defs>
    <g id="Page-1" stroke="none" stroke-width="1" fill="none" fill-rule="evenodd">
        <g id="Group">
            <mask id="mask-3" fill="white">
                <use xlink:href="#path-2"></use>
            </mask>
            <use id="Rectangle" fill="url(#radialGradient-1)" xlink:href="#path-2"></use>
            <g id="logo-course" mask="url(#mask-3)">
                <g transform="translate(29.000000, 228.000000)" id="Clipped">
                    <g>
                        <mask id="mask-5" fill="white">
                            <use xlink:href="#path-4"></use>
                        </mask>
                        <g id="a"></g>
                        <path d="M429.922318,39.7285714 L448.807296,39.7285714 L448.807296,37.8642857 L431.913591,37.8642857 L431.913591,24.0428571 L445.017454,24.0428571 L445.017454,22.1785714 L431.913591,22.1785714 L431.913591,8.67857143 L447.908011,8.67857143 L447.908011,6.81428571 L429.922318,6.81428571 L429.922318,39.7285714 L429.922318,39.7285714 Z M402.815308,23.2714286 L402.815308,8.67857143 L410.330758,8.67857143 C412.964378,8.67857143 413.992132,8.93571429 414.955651,9.32142857 C417.332332,10.4142857 418.809728,12.7285714 418.809728,15.6857143 C418.809728,20.1214286 416.111874,23.2714286 411.74392,23.2714286 L402.815308,23.2714286 L402.815308,23.2714286 Z M400.824034,39.7285714 L402.815308,39.7285714 L402.815308,25.1357143 L412.257797,25.1357143 L420.094421,39.7285714 L422.471102,39.7285714 L415.08412,26.0357143 C414.634478,25.2642857 414.313305,24.8785714 414.313305,24.8785714 L414.313305,24.8142857 C418.167382,23.9785714 420.865236,20.4428571 420.865236,15.75 C420.865236,11.9571429 419.002432,9.19285714 416.304578,7.84285714 C415.019886,7.2 413.41402,6.87857143 410.394993,6.87857143 L400.7598,6.87857143 L400.7598,39.7285714 L400.824034,39.7285714 Z M361.448212,23.0142857 C361.448212,14.5928571 367.935908,8.16428571 375.965236,8.16428571 C383.994564,8.16428571 390.48226,14.5928571 390.48226,23.0142857 C390.48226,31.6928571 383.994564,38.3142857 375.965236,38.3142857 C367.935908,38.3785714 361.448212,31.6928571 361.448212,23.0142857 L361.448212,23.0142857 Z M359.328469,23.0142857 C359.328469,32.7214286 366.779685,40.2428571 375.965236,40.2428571 C385.150787,40.2428571 392.602003,32.6571429 392.602003,23.0142857 C392.602003,13.5642857 385.150787,6.23571429 375.965236,6.23571429 C366.779685,6.23571429 359.328469,13.5642857 359.328469,23.0142857 L359.328469,23.0142857 Z M339.801144,39.7285714 L357.5299,39.7285714 L357.5299,37.8642857 L341.856652,37.8642857 L341.856652,6.81428571 L339.801144,6.81428571 L339.801144,39.7285714 L339.801144,39.7285714 Z M314.3,24.1714286 L314.3,8.67857143 L322.971674,8.67857143 C327.78927,8.67857143 330.936767,11.4428571 330.936767,16.3928571 C330.936767,21.3428571 327.725036,24.1714286 322.971674,24.1714286 L314.3,24.1714286 L314.3,24.1714286 Z M312.308727,39.7285714 L314.3,39.7285714 L314.3,26.1 L323.100143,26.1 C328.817024,26.1 333.120744,22.3714286 333.120744,16.3928571 C333.120744,10.4142857 328.817024,6.81428571 323.100143,6.81428571 L312.308727,6.81428571 L312.308727,39.7285714 L312.308727,39.7285714 Z M281.733047,39.7285714 L284.109728,39.7285714 L291.625179,27.2571429 C292.588698,25.5857143 293.616452,23.6571429 293.616452,23.6571429 L293.680687,23.6571429 C293.680687,23.6571429 294.83691,25.5214286 295.800429,27.1928571 L303.380114,39.7285714 L305.756795,39.7285714 L295.093848,22.3071429 L304.600572,6.81428571 L302.159657,6.81428571 L295.800429,17.2928571 C294.83691,18.9 293.809156,20.9571429 293.809156,20.9571429 L293.744921,20.9571429 C293.744921,20.9571429 292.524464,18.9 291.560944,17.2928571 L285.265951,6.81428571 L282.825036,6.81428571 L292.267525,22.3071429 L281.733047,39.7285714 L281.733047,39.7285714 Z M257.516595,39.7285714 L276.401574,39.7285714 L276.401574,37.8642857 L259.507868,37.8642857 L259.507868,24.0428571 L272.611731,24.0428571 L272.611731,22.1785714 L259.507868,22.1785714 L259.507868,8.67857143 L275.502289,8.67857143 L275.502289,6.81428571 L257.516595,6.81428571 L257.516595,39.7285714 L257.516595,39.7285714 Z M233.107439,44.55 L235.098712,44.55 L235.098712,0.385714286 L233.107439,0.385714286 L233.107439,44.55 L233.107439,44.55 Z M192.125751,36.1928571 C192.125751,36.1928571 195.72289,40.3071429 202.210587,40.3071429 C208.055937,40.3071429 211.71731,36.5142857 211.71731,31.7571429 C211.71731,20.7642857 194.88784,23.4642857 194.88784,14.7214286 C194.88784,11.5071429 197.778398,8.22857143 202.660229,8.22857143 C207.028183,8.22857143 209.854506,11.0571429 209.854506,11.0571429 L211.01073,9.32142857 C211.01073,9.32142857 207.991702,6.23571429 202.660229,6.23571429 C196.686409,6.23571429 192.768097,10.35 192.768097,14.7214286 C192.768097,25.0071429 209.597568,22.4357143 209.597568,31.7571429 C209.597568,35.6785714 206.385837,38.25 202.274821,38.25 C196.814878,38.25 193.474678,34.5857143 193.474678,34.5857143 L192.125751,36.1928571 L192.125751,36.1928571 Z M167.138484,36.1928571 C167.138484,36.1928571 170.735622,40.3071429 177.223319,40.3071429 C183.06867,40.3071429 186.730043,36.5142857 186.730043,31.7571429 C186.730043,20.7642857 169.900572,23.4642857 169.900572,14.7214286 C169.900572,11.5071429 172.79113,8.22857143 177.672961,8.22857143 C182.040916,8.22857143 184.867239,11.0571429 184.867239,11.0571429 L186.023462,9.32142857 C186.023462,9.32142857 183.004435,6.23571429 177.672961,6.23571429 C171.699142,6.23571429 167.78083,10.35 167.78083,14.7214286 C167.78083,25.0071429 184.6103,22.4357143 184.6103,31.7571429 C184.6103,35.6785714 181.398569,38.25 177.287554,38.25 C171.827611,38.25 168.487411,34.5857143 168.487411,34.5857143 L167.138484,36.1928571 L167.138484,36.1928571 Z M149.345494,9.12857143 C149.345494,9.12857143 150.052074,11.6357143 150.565951,13.05 L155.576252,26.4214286 L143.050501,26.4214286 L148.060801,13.05 C148.574678,11.6357143 149.281259,9.12857143 149.281259,9.12857143 L149.345494,9.12857143 L149.345494,9.12857143 Z M160.522318,39.7285714 L162.706295,39.7285714 L150.373247,6.81428571 L148.18927,6.81428571 L135.856223,39.7285714 L138.0402,39.7285714 L142.279685,28.35 L156.218598,28.35 L160.522318,39.7285714 Z M116.264664,24.1714286 L116.264664,8.67857143 L124.936338,8.67857143 C129.753934,8.67857143 132.901431,11.4428571 132.901431,16.3928571 C132.901431,21.3428571 129.6897,24.1714286 124.936338,24.1714286 L116.264664,24.1714286 Z M114.273391,39.7285714 L116.264664,39.7285714 L116.264664,26.1 L125.064807,26.1 C130.781688,26.1 135.085408,22.3714286 135.085408,16.3928571 C135.085408,10.4142857 130.781688,6.81428571 125.064807,6.81428571 L114.273391,6.81428571 L114.273391,39.7285714 L114.273391,39.7285714 Z M73.2917024,39.7285714 L75.2829757,39.7285714 L77.2742489,14.5928571 C77.4027182,12.9857143 77.4027182,10.1571429 77.4027182,10.1571429 L77.4669528,10.1571429 C77.4669528,10.1571429 78.4947067,13.05 79.2012876,14.5928571 L88.0014306,33.3642857 L90.0569385,33.3642857 L98.9213162,14.5928571 C99.6921316,12.9857143 100.591416,10.2214286 100.591416,10.2214286 L100.655651,10.2214286 C100.655651,10.2214286 100.655651,12.9857143 100.78412,14.5928571 L102.775393,39.7285714 L104.766667,39.7285714 L102.133047,6.81428571 L100.141774,6.81428571 L90.5708155,27.5142857 C89.8,29.1214286 88.9649499,31.2428571 88.9649499,31.2428571 L88.9007153,31.2428571 C88.9007153,31.2428571 88.0656652,29.1214286 87.2948498,27.5142857 L77.7238913,6.81428571 L75.732618,6.81428571 L73.2917024,39.7285714 L73.2917024,39.7285714 Z M35.3290415,23.0142857 C35.3290415,14.5928571 41.8167382,8.16428571 49.8460658,8.16428571 C57.8753934,8.16428571 64.3630901,14.5928571 64.3630901,23.0142857 C64.3630901,31.6928571 57.8753934,38.3142857 49.8460658,38.3142857 C41.8167382,38.3142857 35.3290415,31.6928571 35.3290415,23.0142857 L35.3290415,23.0142857 Z M33.209299,23.0142857 C33.209299,32.7214286 40.660515,40.2428571 49.8460658,40.2428571 C59.0316166,40.2428571 66.4828326,32.6571429 66.4828326,23.0142857 C66.4828326,13.5642857 59.0316166,6.23571429 49.8460658,6.23571429 C40.660515,6.23571429 33.209299,13.5642857 33.209299,23.0142857 L33.209299,23.0142857 Z M0.449642346,23.0142857 C0.449642346,32.5285714 7.3869814,40.2428571 16.9579399,40.2428571 C24.9230329,40.2428571 29.3552217,35.2285714 29.3552217,35.2285714 L28.0705293,33.8142857 C28.0705293,33.8142857 23.9595136,38.3142857 16.9579399,38.3142857 C8.67167382,38.3785714 2.56938484,31.5642857 2.56938484,23.0142857 C2.56938484,14.5285714 8.73590844,8.16428571 16.8294707,8.16428571 C23.381402,8.16428571 27.2997139,11.8928571 27.2997139,11.8928571 L28.5201717,10.4142857 C28.5201717,10.4142857 24.6018598,6.3 16.7652361,6.3 C7.51545064,6.23571429 0.449642346,13.5 0.449642346,23.0142857 L0.449642346,23.0142857 Z" id="Shape" fill="#FFFFFF" fill-rule="nonzero" mask="url(#mask-5)"></path>
                    </g>
                    <g>
                        <mask id="mask-7" fill="white">
                            <use xlink:href="#path-6"></use>
                        </mask>
                        <g id="a"></g>
                        <path d="M41.8167382,24.1714286 L41.688269,24.1071429 L38.8619456,23.6571429 L38.797711,23.6571429 L36.0998569,23.2714286 L35.8429185,23.2071429 L33.9801144,22.95 L33.9801144,22.8857143 L46.1204578,21.0857143 L41.8809728,15.4285714 L47.4051502,19.4785714 L47.5336195,19.5428571 L48.0474964,16.2 L48.0474964,16.0071429 L48.111731,15.75 L48.1759657,15.3 L48.1759657,15.1714286 L48.625608,12.2785714 L48.625608,12.2142857 L48.8183119,10.9928571 L49.0752504,9.25714286 L49.3321888,7.39285714 L49.4606581,7.39285714 L49.7175966,9.25714286 L50.1030043,11.8928571 L50.1672389,12.2142857 L50.1672389,12.2785714 L50.6168813,15.1714286 L50.6168813,15.3 L50.6811159,15.75 L50.7453505,16.0714286 L50.7453505,16.2642857 L51.2592275,19.6071429 L56.9118741,15.4285714 L52.7366237,21.0857143 L64.8769671,22.8857143 L64.8769671,22.95 L63.0141631,23.2071429 L62.7572246,23.2714286 L60.0593705,23.6571429 L59.9951359,23.6571429 L57.1688126,24.1714286 L57.0403433,24.1714286 L56.590701,24.2357143 L56.3337625,24.3 L56.1410587,24.3 L52.7366237,24.8142857 L54.5994278,27.2571429 L56.9118741,30.4071429 L51.2592275,26.2285714 L50.7453505,29.5714286 L50.7453505,29.7642857 L50.6811159,30.0857143 L50.6168813,30.5357143 L50.6168813,30.6642857 L50.1672389,33.5571429 L50.1672389,33.6214286 L49.7818312,36.3214286 L49.7818312,36.6428571 L49.4606581,38.5071429 L49.3321888,38.5071429 L49.0752504,36.6428571 L49.0110157,36.3857143 L48.625608,33.6857143 L48.625608,33.6214286 L48.1759657,30.7285714 L48.1759657,30.6 L48.111731,30.15 L48.0474964,29.8285714 L48.0474964,29.6357143 L47.5336195,26.2928571 L45.7992847,27.5785714 L41.8809728,30.4714286 L46.0562232,24.8142857 L42.7160229,24.3 L42.523319,24.3 L42.2021459,24.2357143 L41.8167382,24.1714286 L41.8167382,24.1714286 Z M48.4329041,21.15 C48.6898426,21.0214286 49.0110157,20.8928571 49.3964235,20.8928571 L49.3964235,8.16428571 L48.3686695,15.2357143 L47.7263233,19.7357143 L48.4329041,21.15 L48.4329041,21.15 Z M47.5978541,21.9214286 C47.6620887,21.7928571 47.7905579,21.6642857 47.8547926,21.5357143 L45.5423462,19.2214286 L42.3306152,16.0071429 L46.1204578,21.0857143 L47.5978541,21.9214286 L47.5978541,21.9214286 Z M47.5336195,23.9142857 C47.4051502,23.6571429 47.3409156,23.4 47.276681,23.0785714 L34.558226,23.0142857 L41.5597997,24.0428571 L46.0562232,24.6857143 L47.5336195,23.9142857 Z M48.3044349,24.75 C48.1759657,24.6857143 48.0474964,24.5571429 47.9190272,24.4928571 L47.4051502,25.0071429 L43.4226037,28.9928571 L42.3948498,30.0214286 L47.4693848,26.2285714 L48.3044349,24.75 L48.3044349,24.75 Z M50.3599428,24.8142857 C50.1030043,24.9428571 49.7818312,25.0071429 49.4606581,25.0714286 L49.4606581,37.8 L50.488412,30.7285714 L51.1307582,26.2928571 L50.3599428,24.8142857 L50.3599428,24.8142857 Z M51.1949928,23.9785714 C51.1307582,24.1071429 51.002289,24.2357143 50.9380544,24.3642857 L51.516166,24.9428571 L56.4622318,29.8928571 L52.6723891,24.8142857 L51.1949928,23.9785714 Z M51.2592275,21.9857143 L52.6723891,21.2142857 L57.104578,21.8571429 L64.1703863,22.8857143 L51.4519313,22.8857143 C51.4519313,22.5642857 51.3876967,22.3071429 51.2592275,21.9857143 L51.2592275,21.9857143 Z M49.3964235,21.0214286 C50.4241774,21.0214286 51.3234621,21.8571429 51.3234621,22.95 C51.3234621,24.0428571 50.488412,24.8785714 49.3964235,24.8785714 C48.3044349,24.8785714 47.4693848,24.0428571 47.4693848,22.95 C47.4693848,21.9214286 48.3686695,21.0214286 49.3964235,21.0214286 L49.3964235,21.0214286 Z M49.3964235,21.9214286 C49.9745351,21.9214286 50.4241774,22.3714286 50.4241774,22.95 C50.4241774,23.5285714 49.9745351,23.9785714 49.3964235,23.9785714 C48.8183119,23.9785714 48.3686695,23.5285714 48.3686695,22.95 C48.4329041,22.3714286 48.8825465,21.9214286 49.3964235,21.9214286 L49.3964235,21.9214286 Z M50.8095851,21.4714286 L51.3876967,20.8928571 L56.3337625,15.9428571 L51.2592275,19.7357143 L50.488412,21.2142857 C50.6168813,21.2785714 50.7453505,21.3428571 50.8095851,21.4714286 L50.8095851,21.4714286 Z" id="Shape" fill="#FFFFFF" fill-rule="nonzero" mask="url(#mask-7)"></path>
                    </g>
                </g>
            </g>
        </g>
    </g>
</svg>